<svg width="37" height="37" viewBox="0 0 37 37" fill="none" xmlns="http://www.w3.org/2000/svg">
<path d="M18.5302 4.48627C13.4273 4.48627 9.28018 8.63335 9.28018 13.7363V18.1917C9.28018 19.1321 8.87934 20.5658 8.40142 21.3675L6.62851 24.3121C5.53393 26.1313 6.28934 28.1509 8.29351 28.8292C14.9381 31.0492 22.1068 31.0492 28.7514 28.8292C30.6168 28.2125 31.4339 26.0079 30.4164 24.3121L28.6435 21.3675C28.181 20.5658 27.7802 19.1321 27.7802 18.1917V13.7363C27.7802 8.64877 23.6177 4.48627 18.5302 4.48627Z" stroke="#292D32" stroke-width="2.3125" stroke-miterlimit="10" stroke-linecap="round"/>
<path d="M21.3829 4.93334C20.905 4.79459 20.4116 4.68668 19.9029 4.62501C18.4229 4.44001 17.0045 4.54793 15.6787 4.93334C16.1258 3.79251 17.2358 2.99084 18.5308 2.99084C19.8258 2.99084 20.9358 3.79251 21.3829 4.93334Z" stroke="#292D32" stroke-width="2.3125" stroke-miterlimit="10" stroke-linecap="round" stroke-linejoin="round"/>
<path d="M23.1553 29.3842C23.1553 31.9279 21.074 34.0092 18.5303 34.0092C17.2661 34.0092 16.0944 33.485 15.2619 32.6525C14.4294 31.82 13.9053 30.6483 13.9053 29.3842" stroke="#292D32" stroke-width="2.3125" stroke-miterlimit="10"/>
</svg>
