<svg width="37" height="37" viewBox="0 0 37 37" fill="none" xmlns="http://www.w3.org/2000/svg">
<path d="M33.917 10.0208H24.667" stroke="#292D32" stroke-width="1.5" stroke-miterlimit="10" stroke-linecap="round" stroke-linejoin="round"/>
<path d="M9.24967 10.0208H3.08301" stroke="#292D32" stroke-width="1.5" stroke-miterlimit="10" stroke-linecap="round" stroke-linejoin="round"/>
<path d="M15.4163 15.4167C18.3964 15.4167 20.8122 13.0009 20.8122 10.0208C20.8122 7.0408 18.3964 4.625 15.4163 4.625C12.4363 4.625 10.0205 7.0408 10.0205 10.0208C10.0205 13.0009 12.4363 15.4167 15.4163 15.4167Z" stroke="#292D32" stroke-width="1.5" stroke-miterlimit="10" stroke-linecap="round" stroke-linejoin="round"/>
<path d="M33.9167 26.9792H27.75" stroke="#292D32" stroke-width="1.5" stroke-miterlimit="10" stroke-linecap="round" stroke-linejoin="round"/>
<path d="M12.333 26.9792H3.08301" stroke="#292D32" stroke-width="1.5" stroke-miterlimit="10" stroke-linecap="round" stroke-linejoin="round"/>
<path d="M21.5833 32.375C24.5634 32.375 26.9792 29.9592 26.9792 26.9791C26.9792 23.9991 24.5634 21.5833 21.5833 21.5833C18.6033 21.5833 16.1875 23.9991 16.1875 26.9791C16.1875 29.9592 18.6033 32.375 21.5833 32.375Z" stroke="#292D32" stroke-width="1.5" stroke-miterlimit="10" stroke-linecap="round" stroke-linejoin="round"/>
</svg>
