<svg width="85" height="85" viewBox="0 0 85 85" fill="none" xmlns="http://www.w3.org/2000/svg">
<path d="M42.5 69.0625C57.1701 69.0625 69.0625 57.1701 69.0625 42.5C69.0625 27.8299 57.1701 15.9375 42.5 15.9375C27.8299 15.9375 15.9375 27.8299 15.9375 42.5C15.9375 57.1701 27.8299 69.0625 42.5 69.0625Z" stroke="#292D32" stroke-width="5.5" stroke-linecap="round" stroke-linejoin="round"/>
<path d="M42.5 53.125C48.368 53.125 53.125 48.368 53.125 42.5C53.125 36.632 48.368 31.875 42.5 31.875C36.632 31.875 31.875 36.632 31.875 42.5C31.875 48.368 36.632 53.125 42.5 53.125Z" stroke="#292D32" stroke-width="5.5" stroke-linecap="round" stroke-linejoin="round"/>
<path d="M42.5 14.1668V7.0835" stroke="#292D32" stroke-width="5.5" stroke-linecap="round" stroke-linejoin="round"/>
<path d="M14.1668 42.5H7.0835" stroke="#292D32" stroke-width="5.5" stroke-linecap="round" stroke-linejoin="round"/>
<path d="M42.5 70.8335V77.9168" stroke="#292D32" stroke-width="5.5" stroke-linecap="round" stroke-linejoin="round"/>
<path d="M70.8335 42.5H77.9168" stroke="#292D32" stroke-width="5.5" stroke-linecap="round" stroke-linejoin="round"/>
</svg>
