<svg width="37" height="37" viewBox="0 0 37 37" fill="none" xmlns="http://www.w3.org/2000/svg">
<g clip-path="url(#clip0_212_250)">
<path d="M13.214 13.2143C16.4981 13.2143 19.1604 10.552 19.1604 7.26785C19.1604 3.98373 16.4981 1.32143 13.214 1.32143C9.92988 1.32143 7.26758 3.98373 7.26758 7.26785C7.26758 10.552 9.92988 13.2143 13.214 13.2143Z" stroke="#000001" stroke-width="3.28571" stroke-linecap="round" stroke-linejoin="round"/>
<path d="M11.8927 33.0357H1.32129V29.0714C1.34233 27.057 1.87359 25.0808 2.86544 23.3274C3.85729 21.574 5.27738 20.1005 6.99306 19.0447C8.70873 17.9889 10.664 17.3852 12.6763 17.2899C14.6885 17.1947 16.6921 17.611 18.4999 18.5" stroke="#000001" stroke-width="3.28571" stroke-linecap="round" stroke-linejoin="round"/>
<path d="M27.75 19.8214V35.6786" stroke="#000001" stroke-width="3.28571" stroke-linecap="round" stroke-linejoin="round"/>
<path d="M19.8213 27.75H35.6784" stroke="#000001" stroke-width="3.28571" stroke-linecap="round" stroke-linejoin="round"/>
</g>
<defs>
<clipPath id="clip0_212_250">
<rect width="37" height="37" fill="white"/>
</clipPath>
</defs>
</svg>
