<svg width="37" height="37" viewBox="0 0 37 37" fill="none" xmlns="http://www.w3.org/2000/svg">
<g clip-path="url(#clip0_212_278)">
<path d="M19.4513 35.4143C18.839 35.6505 18.1607 35.6505 17.5484 35.4143V35.4143C12.7751 33.5738 8.67041 30.332 5.77412 26.1149C2.87784 21.8978 1.32552 16.903 1.32129 11.7871V4.06998C1.32129 3.36905 1.59973 2.69683 2.09536 2.2012C2.591 1.70557 3.26322 1.42712 3.96415 1.42712H33.0356C33.7365 1.42712 34.4087 1.70557 34.9044 2.2012C35.4 2.69683 35.6784 3.36905 35.6784 4.06998V11.7871C35.6742 16.903 34.1219 21.8978 31.2256 26.1149C28.3293 30.332 24.2246 33.5738 19.4513 35.4143V35.4143Z" stroke="#000001" stroke-width="2.64286" stroke-linecap="round" stroke-linejoin="round"/>
<path d="M18.5004 17.2843C20.6898 17.2843 22.4647 15.5094 22.4647 13.32C22.4647 11.1306 20.6898 9.3557 18.5004 9.3557C16.311 9.3557 14.5361 11.1306 14.5361 13.32C14.5361 15.5094 16.311 17.2843 18.5004 17.2843Z" stroke="#000001" stroke-width="2.64286" stroke-linecap="round" stroke-linejoin="round"/>
<path d="M18.5 23.8914V17.2843" stroke="#000001" stroke-width="2.64286" stroke-linecap="round" stroke-linejoin="round"/>
</g>
<defs>
<clipPath id="clip0_212_278">
<rect width="37" height="37" fill="white"/>
</clipPath>
</defs>
</svg>
