<svg width="37" height="37" viewBox="0 0 37 37" fill="none" xmlns="http://www.w3.org/2000/svg">
<path d="M26.4284 4.625H3.96415C2.50454 4.625 1.32129 5.80825 1.32129 7.26786V23.125C1.32129 24.5846 2.50454 25.7679 3.96415 25.7679H26.4284C27.888 25.7679 29.0713 24.5846 29.0713 23.125V7.26786C29.0713 5.80825 27.888 4.625 26.4284 4.625Z" stroke="#000001" stroke-width="2.64286" stroke-linecap="round" stroke-linejoin="round"/>
<path d="M15.1967 19.1607C17.3861 19.1607 19.161 17.3858 19.161 15.1964C19.161 13.007 17.3861 11.2321 15.1967 11.2321C13.0073 11.2321 11.2324 13.007 11.2324 15.1964C11.2324 17.3858 13.0073 19.1607 15.1967 19.1607Z" stroke="#000001" stroke-width="2.64286" stroke-linecap="round" stroke-linejoin="round"/>
<path d="M9.25 32.375H33.0357C33.7366 32.375 34.4089 32.0966 34.9045 31.6009C35.4001 31.1053 35.6786 30.4331 35.6786 29.7321V16.5179" stroke="#000001" stroke-width="2.64286" stroke-linecap="round" stroke-linejoin="round"/>
</svg>
