<svg width="19" height="19" viewBox="0 0 19 19" fill="none" xmlns="http://www.w3.org/2000/svg">
<path d="M17.97 14.8768C17.97 15.1827 17.902 15.4972 17.7576 15.8031C17.6131 16.109 17.4261 16.3979 17.1797 16.6698C16.7633 17.1287 16.3044 17.4601 15.7861 17.6726C15.2762 17.885 14.7239 17.9955 14.129 17.9955C13.2622 17.9955 12.336 17.7915 11.3588 17.3752C10.3815 16.9588 9.40427 16.3979 8.43553 15.6926C7.45829 14.9788 6.53203 14.1885 5.64827 13.3132C4.773 12.4295 3.98271 11.5032 3.2774 10.5345C2.58058 9.56573 2.01973 8.59699 1.61184 7.63674C1.20395 6.668 1 5.74174 1 4.85798C1 4.28013 1.10197 3.72778 1.30592 3.21791C1.50986 2.69955 1.83278 2.22368 2.28316 1.79879C2.82702 1.26343 3.42186 1 4.05069 1C4.28863 1 4.52656 1.05099 4.73901 1.15296C4.95995 1.25493 5.1554 1.40789 5.30836 1.62883L7.27984 4.4076C7.43279 4.62004 7.54326 4.81549 7.61974 5.00244C7.69622 5.18089 7.73871 5.35934 7.73871 5.5208C7.73871 5.72475 7.67923 5.92869 7.56026 6.12414C7.44979 6.31959 7.28833 6.52354 7.08439 6.72748L6.43856 7.3988C6.34508 7.49228 6.30259 7.60275 6.30259 7.73871C6.30259 7.8067 6.31109 7.86618 6.32809 7.93416C6.35358 8.00214 6.37907 8.05313 6.39607 8.10412C6.54903 8.38454 6.81246 8.74995 7.18636 9.19183C7.56876 9.63371 7.97665 10.0841 8.41853 10.5345C8.87741 10.9849 9.31929 11.4012 9.76967 11.7836C10.2116 12.1575 10.577 12.4125 10.8659 12.5654C10.9084 12.5824 10.9594 12.6079 11.0188 12.6334C11.0868 12.6589 11.1548 12.6674 11.2313 12.6674C11.3757 12.6674 11.4862 12.6164 11.5797 12.5229L12.2255 11.8856C12.438 11.6732 12.6419 11.5117 12.8374 11.4097C13.0328 11.2908 13.2283 11.2313 13.4407 11.2313C13.6022 11.2313 13.7721 11.2653 13.9591 11.3418C14.146 11.4182 14.3415 11.5287 14.5539 11.6732L17.3667 13.6701C17.5876 13.8231 17.7406 14.0016 17.834 14.214C17.919 14.4264 17.97 14.6389 17.97 14.8768Z" stroke="#292D32" stroke-width="1.27466" stroke-miterlimit="10"/>
</svg>
